# Blender 4.3.2
# www.blender.org
o Cylinder
v -0.000000 0.453118 -1.059923
v -0.000000 0.972220 -0.623340
v 0.427624 0.396351 -0.996577
v 0.427624 0.915454 -0.559994
v 0.790147 0.234694 -0.816183
v 0.790147 0.753796 -0.379600
v 1.032376 -0.007244 -0.546204
v 1.032376 0.511859 -0.109621
v 1.117436 -0.292629 -0.227742
v 1.117436 0.226474 0.208841
v 1.032376 -0.578014 0.090720
v 1.032376 -0.058911 0.527303
v 0.790147 -0.819951 0.360699
v 0.790147 -0.300848 0.797282
v 0.427624 -0.981609 0.541093
v 0.427624 -0.462506 0.977676
v -0.000000 -1.038375 0.604439
v -0.000000 -0.519273 1.041022
v -0.427624 -0.981609 0.541093
v -0.427624 -0.462506 0.977676
v -0.790147 -0.819951 0.360699
v -0.790147 -0.300848 0.797282
v -1.032376 -0.578014 0.090720
v -1.032376 -0.058911 0.527303
v -1.117436 -0.292629 -0.227742
v -1.117436 0.226474 0.208841
v -1.032376 -0.007244 -0.546204
v -1.032376 0.511859 -0.109621
v -0.790147 0.234694 -0.816183
v -0.790147 0.753796 -0.379600
v -0.427624 0.396351 -0.996577
v -0.427624 0.915454 -0.559994
v -0.000000 0.890240 -1.039784
v 0.529447 0.819957 -0.961355
v 0.978290 0.619807 -0.738007
v 1.278198 0.320261 -0.403742
v 1.383511 -0.033077 -0.009451
v 1.278198 -0.386416 0.384841
v 0.978290 -0.685962 0.719105
v 0.529447 -0.886112 0.942454
v -0.000000 -0.956395 1.020883
v -0.529447 -0.886112 0.942454
v -0.978290 -0.685962 0.719105
v -1.278198 -0.386416 0.384841
v -1.383511 -0.033077 -0.009451
v -1.278198 0.320261 -0.403742
v -0.978290 0.619807 -0.738007
v -0.529447 0.819957 -0.961355
vn -0.0000 0.0460 -0.9989
vn -0.0000 0.9812 -0.1932
vn 0.2977 0.0078 -0.9546
vn 0.3043 0.9412 -0.1467
vn 0.5516 -0.1014 -0.8279
vn 0.5609 0.8278 -0.0150
vn 0.7235 -0.2659 -0.6371
vn 0.7300 0.6590 0.1808
vn 0.7867 -0.4616 -0.4100
vn 0.7867 0.4616 0.4100
vn 0.7300 -0.6590 -0.1808
vn 0.7235 0.2659 0.6371
vn 0.5609 -0.8278 0.0150
vn 0.5516 0.1014 0.8279
vn 0.3043 -0.9412 0.1467
vn 0.2977 -0.0078 0.9546
vn -0.0000 -0.9812 0.1932
vn -0.0000 -0.0460 0.9989
vn -0.3043 -0.9412 0.1467
vn -0.2977 -0.0078 0.9546
vn -0.5609 -0.8278 0.0150
vn -0.5516 0.1014 0.8279
vn -0.7300 -0.6590 -0.1808
vn -0.7235 0.2659 0.6371
vn -0.7867 -0.4616 -0.4100
vn -0.7867 0.4616 0.4100
vn -0.7235 -0.2659 -0.6371
vn -0.7300 0.6590 0.1808
vn -0.5516 -0.1014 -0.8279
vn -0.5609 0.8278 -0.0150
vn -0.2977 0.0078 -0.9546
vn -0.3043 0.9412 -0.1467
vn -0.0000 0.6538 -0.7567
vn 0.3827 0.6040 -0.6991
vn 0.7071 0.4623 -0.5351
vn 0.9239 0.2502 -0.2896
vn 1.0000 -0.0000 -0.0000
vn 0.9239 -0.2502 0.2896
vn 0.7071 -0.4623 0.5351
vn 0.3827 -0.6040 0.6991
vn -0.0000 -0.6538 0.7567
vn -0.3827 -0.6040 0.6991
vn -0.7071 -0.4623 0.5351
vn -0.9239 -0.2502 0.2896
vn -1.0000 -0.0000 -0.0000
vn -0.9239 0.2502 -0.2896
vn -0.7071 0.4623 -0.5351
vn -0.3827 0.6040 -0.6991
vt 1.000000 0.500000
vt 1.000000 1.000000
vt 0.937500 1.000000
vt 0.937500 0.500000
vt 0.875000 1.000000
vt 0.875000 0.500000
vt 0.812500 1.000000
vt 0.812500 0.500000
vt 0.750000 1.000000
vt 0.750000 0.500000
vt 0.687500 1.000000
vt 0.687500 0.500000
vt 0.625000 1.000000
vt 0.625000 0.500000
vt 0.562500 1.000000
vt 0.562500 0.500000
vt 0.500000 1.000000
vt 0.500000 0.500000
vt 0.437500 1.000000
vt 0.437500 0.500000
vt 0.375000 1.000000
vt 0.375000 0.500000
vt 0.312500 1.000000
vt 0.312500 0.500000
vt 0.250000 1.000000
vt 0.250000 0.500000
vt 0.187500 1.000000
vt 0.187500 0.500000
vt 0.125000 1.000000
vt 0.125000 0.500000
vt 0.062500 1.000000
vt 0.062500 0.500000
vt 0.000000 1.000000
vt 0.000000 0.500000
vt 0.062500 0.000000
vt 0.000000 0.000000
vt 0.125000 0.000000
vt 0.187500 0.000000
vt 0.250000 0.000000
vt 0.312500 0.000000
vt 0.375000 0.000000
vt 0.437500 0.000000
vt 0.500000 0.000000
vt 0.562500 0.000000
vt 0.625000 0.000000
vt 0.687500 0.000000
vt 0.750000 0.000000
vt 0.812500 0.000000
vt 0.875000 0.000000
vt 0.937500 0.000000
vt 1.000000 0.000000
s 1
f 33/1/33 2/2/2 4/3/4 34/4/34
f 34/4/34 4/3/4 6/5/6 35/6/35
f 35/6/35 6/5/6 8/7/8 36/8/36
f 36/8/36 8/7/8 10/9/10 37/10/37
f 37/10/37 10/9/10 12/11/12 38/12/38
f 38/12/38 12/11/12 14/13/14 39/14/39
f 39/14/39 14/13/14 16/15/16 40/16/40
f 40/16/40 16/15/16 18/17/18 41/18/41
f 41/18/41 18/17/18 20/19/20 42/20/42
f 42/20/42 20/19/20 22/21/22 43/22/43
f 43/22/43 22/21/22 24/23/24 44/24/44
f 44/24/44 24/23/24 26/25/26 45/26/45
f 45/26/45 26/25/26 28/27/28 46/28/46
f 46/28/46 28/27/28 30/29/30 47/30/47
f 47/30/47 30/29/30 32/31/32 48/32/48
f 48/32/48 32/31/32 2/33/2 33/34/33
f 31/35/31 48/32/48 33/34/33 1/36/1
f 29/37/29 47/30/47 48/32/48 31/35/31
f 27/38/27 46/28/46 47/30/47 29/37/29
f 25/39/25 45/26/45 46/28/46 27/38/27
f 23/40/23 44/24/44 45/26/45 25/39/25
f 21/41/21 43/22/43 44/24/44 23/40/23
f 19/42/19 42/20/42 43/22/43 21/41/21
f 17/43/17 41/18/41 42/20/42 19/42/19
f 15/44/15 40/16/40 41/18/41 17/43/17
f 13/45/13 39/14/39 40/16/40 15/44/15
f 11/46/11 38/12/38 39/14/39 13/45/13
f 9/47/9 37/10/37 38/12/38 11/46/11
f 7/48/7 36/8/36 37/10/37 9/47/9
f 5/49/5 35/6/35 36/8/36 7/48/7
f 3/50/3 34/4/34 35/6/35 5/49/5
f 1/51/1 33/1/33 34/4/34 3/50/3
