# Blender 4.5.1 LTS
# www.blender.org
o BézierCurve.003
v -11.146395 0.986270 -0.082959
v -10.970127 0.119437 0.082959
v -9.822914 1.160527 -0.100554
v -9.760070 0.278475 0.066883
v -8.577933 1.170394 -0.108799
v -8.615088 0.287017 0.059323
v -7.424776 1.062861 -0.109878
v -7.540019 0.186265 0.058340
v -6.374500 0.885255 -0.106010
v -6.541970 0.017087 0.062031
v -5.438626 0.684514 -0.099411
v -5.627585 -0.179259 0.068488
v -4.631595 0.506963 -0.092278
v -4.800586 -0.360906 0.075786
v -3.975699 0.396628 -0.086762
v -4.056843 -0.483685 0.081953
v -3.475588 0.387794 -0.084664
v -3.409872 -0.493687 0.084665
v -3.027533 0.464383 -0.084726
v -2.846045 -0.400688 0.084726
v -2.558622 0.583092 -0.084726
v -2.318528 -0.267579 0.084726
v -2.093580 0.728409 -0.084726
v -1.817163 -0.111162 0.084726
v -1.640379 0.885462 -0.084726
v -1.348552 0.051122 0.084726
v -1.205319 1.039061 -0.084726
v -0.920962 0.202146 0.084726
v -0.791826 1.173851 -0.084726
v -0.545539 0.324952 0.084726
v -0.397521 1.273336 -0.084726
v -0.239232 0.403721 0.084726
v 0.016884 1.312539 -0.083368
v -0.055900 0.431119 0.083369
v 0.450289 1.191334 -0.061478
v 0.026559 0.411129 0.085948
v 0.801063 0.901385 -0.011525
v 0.115909 0.328603 0.100213
v 1.033823 0.529513 0.052069
v 0.210668 0.173381 0.126804
v 1.157150 0.107203 0.123475
v 0.265389 -0.009361 0.157765
v 1.147186 -0.347969 0.199035
v 0.267066 -0.160535 0.182970
v 0.947502 -0.792382 0.270373
v 0.235259 -0.247103 0.197013
v 0.531312 -1.115204 0.318265
v 0.159892 -0.303235 0.205334
v -0.042846 -1.229997 0.330610
v -0.054442 -0.338705 0.206250
v -0.620020 -1.132603 0.316330
v -0.288245 -0.301983 0.216344
v -1.056608 -0.835243 0.311689
v -0.396723 -0.228501 0.231597
v -1.301899 -0.403102 0.316176
v -0.446528 -0.131427 0.248846
v -1.352663 0.069934 0.325547
v -0.456830 0.004775 0.268662
v -1.236754 0.525656 0.336847
v -0.415717 0.159960 0.290326
v -0.967677 0.924741 0.348278
v -0.325624 0.295099 0.311964
v -0.551318 1.212899 0.357436
v -0.196606 0.386129 0.332304
v -0.055943 1.320639 0.359384
v 0.023662 0.424192 0.352613
v 0.389643 1.312306 0.376079
v 0.345588 0.414034 0.341905
v 0.774249 1.283385 0.381455
v 0.691408 0.389215 0.321475
v 1.146745 1.242391 0.377510
v 1.040468 0.352785 0.292039
v 1.520167 1.195808 0.366064
v 1.407947 0.309829 0.254492
v 1.909338 1.149454 0.348703
v 1.807240 0.266094 0.209957
v 2.330301 1.108634 0.326715
v 2.250521 0.227842 0.159863
v 2.799522 1.078550 0.301206
v 2.749538 0.201439 0.105813
v 3.321151 1.064440 0.274169
v 3.328361 0.193214 0.048530
v 3.864393 1.106912 0.227657
v 3.968709 0.238105 0.017199
v 4.417589 1.218240 0.188111
v 4.611601 0.360977 -0.005437
v 4.992517 1.380747 0.154890
v 5.241127 0.533448 -0.019112
v 5.585135 1.574031 0.128330
v 5.857195 0.729866 -0.024536
v 6.192483 1.775992 0.108649
v 6.458629 0.926275 -0.022301
v 6.813144 1.963316 0.096011
v 7.042712 1.099935 -0.012946
v 7.447115 2.111217 0.090604
v 7.605312 1.229575 0.002968
v 8.122391 2.193099 0.092950
v 8.114302 1.295739 0.024544
v 8.826391 2.087382 0.115879
v 8.557734 1.233602 0.021633
v 9.478185 1.762053 0.128726
v 9.005424 1.005225 0.011646
v 10.058847 1.320902 0.135064
v 9.492279 0.635436 -0.003272
v 10.597000 0.838082 0.138643
v 10.005663 0.178699 -0.021149
v 11.108024 0.378198 0.142500
v 10.546176 -0.300974 -0.039306
v 11.593139 0.004819 0.149300
v 11.128579 -0.738535 -0.054685
v 12.040773 -0.227839 0.161016
v 11.780430 -1.059582 -0.063541
v 12.456218 -0.294859 0.178800
v 12.512418 -1.160417 -0.061307
vn -0.0114 0.1857 0.9825
vn -0.0032 0.1863 0.9825
vn 0.0117 0.1865 0.9824
vn 0.0230 0.1855 0.9824
vn 0.0301 0.1844 0.9824
vn 0.0322 0.1839 0.9824
vn 0.0273 0.1850 0.9824
vn 0.0109 0.1872 0.9823
vn -0.0161 0.1873 0.9822
vn -0.0387 0.1844 0.9821
vn -0.0511 0.1812 0.9821
vn -0.0589 0.1788 0.9821
vn -0.0622 0.1777 0.9821
vn -0.0606 0.1783 0.9821
vn -0.0525 0.1809 0.9821
vn -0.0338 0.1851 0.9821
vn -0.0339 0.1851 0.9821
vn -0.0086 0.1861 0.9825
vn -0.0087 0.1861 0.9825
vn 0.0067 0.1827 0.9832
vn 0.0112 0.1786 0.9839
vn 0.0112 0.1785 0.9839
vn 0.0142 0.1738 0.9847
vn 0.0161 0.1675 0.9857
vn 0.0157 0.1581 0.9873
vn 0.0157 0.1582 0.9873
vn 0.0100 0.1463 0.9892
vn 0.0100 0.1464 0.9892
vn -0.0020 0.1380 0.9904
vn -0.0021 0.1380 0.9904
vn 0.0033 0.1311 0.9914
vn 0.0433 0.1012 0.9939
vn 0.0431 0.1013 0.9939
vn 0.0811 0.0428 0.9958
vn 0.0811 0.0427 0.9958
vn 0.0833 -0.0152 0.9964
vn 0.0832 -0.0154 0.9964
vn 0.0595 -0.0526 0.9968
vn 0.0595 -0.0527 0.9968
vn 0.0268 -0.0667 0.9974
vn 0.0269 -0.0667 0.9974
vn -0.0034 -0.0610 0.9981
vn -0.0033 -0.0611 0.9981
vn -0.0214 -0.0393 0.9990
vn -0.0214 -0.0392 0.9990
vn -0.0171 -0.0240 0.9996
vn 0.0042 -0.0383 0.9993
vn 0.0268 -0.0694 0.9972
vn 0.0442 -0.1008 0.9939
vn 0.0561 -0.1317 0.9897
vn 0.0632 -0.1620 0.9848
vn 0.0670 -0.1916 0.9792
vn 0.0689 -0.2207 0.9729
vn 0.0753 -0.2363 0.9688
vn 0.0866 -0.2246 0.9706
vn 0.0911 -0.1997 0.9756
vn 0.0848 -0.1765 0.9806
vn 0.0708 -0.1556 0.9853
vn 0.0515 -0.1363 0.9893
vn 0.0286 -0.1177 0.9926
vn 0.0037 -0.0983 0.9952
vn -0.0196 -0.0879 0.9959
vn -0.0428 -0.0963 0.9944
vn -0.0682 -0.1109 0.9915
vn -0.0919 -0.1235 0.9881
vn -0.0919 -0.1236 0.9881
vn -0.1109 -0.1391 0.9841
vn -0.1219 -0.1614 0.9793
vn -0.1175 -0.1941 0.9739
vn -0.0824 -0.2356 0.9684
vn -0.0545 -0.2576 0.9647
vt 0.000000 1.000000
vt 0.017857 1.000000
vt 0.017857 0.000000
vt 0.000000 0.000000
vt 0.035714 1.000000
vt 0.035714 0.000000
vt 0.053571 1.000000
vt 0.053571 0.000000
vt 0.071429 1.000000
vt 0.071429 0.000000
vt 0.089286 1.000000
vt 0.089286 0.000000
vt 0.107143 1.000000
vt 0.107143 0.000000
vt 0.125000 1.000000
vt 0.125000 0.000000
vt 0.142857 1.000000
vt 0.142857 0.000000
vt 0.160714 1.000000
vt 0.160714 0.000000
vt 0.178571 1.000000
vt 0.178571 0.000000
vt 0.196429 1.000000
vt 0.196429 0.000000
vt 0.214286 1.000000
vt 0.214286 0.000000
vt 0.232143 1.000000
vt 0.232143 0.000000
vt 0.250000 1.000000
vt 0.250000 0.000000
vt 0.267857 1.000000
vt 0.267857 0.000000
vt 0.285714 1.000000
vt 0.285714 0.000000
vt 0.303571 1.000000
vt 0.303571 0.000000
vt 0.321429 1.000000
vt 0.321429 0.000000
vt 0.339286 1.000000
vt 0.339286 0.000000
vt 0.357143 1.000000
vt 0.357143 0.000000
vt 0.375000 1.000000
vt 0.375000 0.000000
vt 0.392857 1.000000
vt 0.392857 0.000000
vt 0.410714 1.000000
vt 0.410714 0.000000
vt 0.428571 1.000000
vt 0.428571 0.000000
vt 0.446429 1.000000
vt 0.446429 0.000000
vt 0.464286 1.000000
vt 0.464286 0.000000
vt 0.482143 1.000000
vt 0.482143 0.000000
vt 0.500000 1.000000
vt 0.500000 0.000000
vt 0.517857 1.000000
vt 0.517857 0.000000
vt 0.535714 1.000000
vt 0.535714 0.000000
vt 0.553571 1.000000
vt 0.553571 0.000000
vt 0.571429 1.000000
vt 0.571429 0.000000
vt 0.589286 1.000000
vt 0.589286 0.000000
vt 0.607143 1.000000
vt 0.607143 0.000000
vt 0.625000 1.000000
vt 0.625000 0.000000
vt 0.642857 1.000000
vt 0.642857 0.000000
vt 0.660714 1.000000
vt 0.660714 0.000000
vt 0.678571 1.000000
vt 0.678571 0.000000
vt 0.696429 1.000000
vt 0.696429 0.000000
vt 0.714286 1.000000
vt 0.714286 0.000000
vt 0.732143 1.000000
vt 0.732143 0.000000
vt 0.750000 1.000000
vt 0.750000 0.000000
vt 0.767857 1.000000
vt 0.767857 0.000000
vt 0.785714 1.000000
vt 0.785714 0.000000
vt 0.803571 1.000000
vt 0.803571 0.000000
vt 0.821429 1.000000
vt 0.821429 0.000000
vt 0.839286 1.000000
vt 0.839286 0.000000
vt 0.857143 1.000000
vt 0.857143 0.000000
vt 0.875000 1.000000
vt 0.875000 0.000000
vt 0.892857 1.000000
vt 0.892857 0.000000
vt 0.910714 1.000000
vt 0.910714 0.000000
vt 0.928571 1.000000
vt 0.928571 0.000000
vt 0.946429 1.000000
vt 0.946429 0.000000
vt 0.964286 1.000000
vt 0.964286 0.000000
vt 0.982143 1.000000
vt 0.982143 0.000000
vt 1.000000 1.000000
vt 1.000000 0.000000
s 1
f 2/1/1 4/2/2 3/3/2 1/4/1
f 4/2/2 6/5/3 5/6/3 3/3/2
f 6/5/3 8/7/4 7/8/4 5/6/3
f 8/7/4 10/9/5 9/10/5 7/8/4
f 10/9/5 12/11/6 11/12/6 9/10/5
f 12/11/6 14/13/7 13/14/7 11/12/6
f 14/13/7 16/15/8 15/16/8 13/14/7
f 16/15/8 18/17/9 17/18/9 15/16/8
f 18/17/9 20/19/10 19/20/10 17/18/9
f 20/19/10 22/21/11 21/22/11 19/20/10
f 22/21/11 24/23/12 23/24/12 21/22/11
f 24/23/12 26/25/13 25/26/13 23/24/12
f 26/25/13 28/27/14 27/28/14 25/26/13
f 28/27/14 30/29/15 29/30/15 27/28/14
f 30/29/15 32/31/17 31/32/16 29/30/15
f 32/31/17 34/33/19 33/34/18 31/32/16
f 34/33/19 36/35/20 35/36/20 33/34/18
f 36/35/20 38/37/22 37/38/21 35/36/20
f 38/37/22 40/39/23 39/40/23 37/38/21
f 40/39/23 42/41/24 41/42/24 39/40/23
f 42/41/24 44/43/26 43/44/25 41/42/24
f 44/43/26 46/45/28 45/46/27 43/44/25
f 46/45/28 48/47/30 47/48/29 45/46/27
f 48/47/30 50/49/31 49/50/31 47/48/29
f 50/49/31 52/51/33 51/52/32 49/50/31
f 52/51/33 54/53/35 53/54/34 51/52/32
f 54/53/35 56/55/37 55/56/36 53/54/34
f 56/55/37 58/57/39 57/58/38 55/56/36
f 58/57/39 60/59/41 59/60/40 57/58/38
f 60/59/41 62/61/43 61/62/42 59/60/40
f 62/61/43 64/63/45 63/64/44 61/62/42
f 64/63/45 66/65/46 65/66/46 63/64/44
f 66/65/46 68/67/47 67/68/47 65/66/46
f 68/67/47 70/69/48 69/70/48 67/68/47
f 70/69/48 72/71/49 71/72/49 69/70/48
f 72/71/49 74/73/50 73/74/50 71/72/49
f 74/73/50 76/75/51 75/76/51 73/74/50
f 76/75/51 78/77/52 77/78/52 75/76/51
f 78/77/52 80/79/53 79/80/53 77/78/52
f 80/79/53 82/81/54 81/82/54 79/80/53
f 82/81/54 84/83/55 83/84/55 81/82/54
f 84/83/55 86/85/56 85/86/56 83/84/55
f 86/85/56 88/87/57 87/88/57 85/86/56
f 88/87/57 90/89/58 89/90/58 87/88/57
f 90/89/58 92/91/59 91/92/59 89/90/58
f 92/91/59 94/93/60 93/94/60 91/92/59
f 94/93/60 96/95/61 95/96/61 93/94/60
f 96/95/61 98/97/62 97/98/62 95/96/61
f 98/97/62 100/99/63 99/100/63 97/98/62
f 100/99/63 102/101/64 101/102/64 99/100/63
f 102/101/64 104/103/66 103/104/65 101/102/64
f 104/103/66 106/105/67 105/106/67 103/104/65
f 106/105/67 108/107/68 107/108/68 105/106/67
f 108/107/68 110/109/69 109/110/69 107/108/68
f 110/109/69 112/111/70 111/112/70 109/110/69
f 112/111/70 114/113/71 113/114/71 111/112/70
